<svg id="visual" viewBox="0 0 900 600" width="900" height="600" xmlns="http://www.w3.org/2000/svg" xmlns:xlink="http://www.w3.org/1999/xlink" version="1.1"><path d="M0 31L13.7 28C27.3 25 54.7 19 82 17C109.3 15 136.7 17 163.8 16C191 15 218 11 245.2 10C272.3 9 299.7 11 327 15C354.3 19 381.7 25 409 24C436.3 23 463.7 15 491 14C518.3 13 545.7 19 573 22C600.3 25 627.7 25 654.8 27C682 29 709 33 736.2 33C763.3 33 790.7 29 818 26C845.3 23 872.7 21 886.3 20L900 19L900 0L886.3 0C872.7 0 845.3 0 818 0C790.7 0 763.3 0 736.2 0C709 0 682 0 654.8 0C627.7 0 600.3 0 573 0C545.7 0 518.3 0 491 0C463.7 0 436.3 0 409 0C381.7 0 354.3 0 327 0C299.7 0 272.3 0 245.2 0C218 0 191 0 163.8 0C136.7 0 109.3 0 82 0C54.7 0 27.3 0 13.7 0L0 0Z" fill="#eaeaea"></path><path d="M0 91L13.7 88C27.3 85 54.7 79 82 71C109.3 63 136.7 53 163.8 44C191 35 218 27 245.2 25C272.3 23 299.7 27 327 36C354.3 45 381.7 59 409 58C436.3 57 463.7 41 491 38C518.3 35 545.7 45 573 49C600.3 53 627.7 51 654.8 56C682 61 709 73 736.2 79C763.3 85 790.7 85 818 79C845.3 73 872.7 61 886.3 55L900 49L900 17L886.3 18C872.7 19 845.3 21 818 24C790.7 27 763.3 31 736.2 31C709 31 682 27 654.8 25C627.7 23 600.3 23 573 20C545.7 17 518.3 11 491 12C463.7 13 436.3 21 409 22C381.7 23 354.3 17 327 13C299.7 9 272.3 7 245.2 8C218 9 191 13 163.8 14C136.7 15 109.3 13 82 15C54.7 17 27.3 23 13.7 26L0 29Z" fill="#e5e5e5"></path><path d="M0 103L13.7 105C27.3 107 54.7 111 82 108C109.3 105 136.7 95 163.8 83C191 71 218 57 245.2 50C272.3 43 299.7 43 327 51C354.3 59 381.7 75 409 79C436.3 83 463.7 75 491 76C518.3 77 545.7 87 573 89C600.3 91 627.7 85 654.8 90C682 95 709 111 736.2 118C763.3 125 790.7 123 818 113C845.3 103 872.7 85 886.3 76L900 67L900 47L886.3 53C872.7 59 845.3 71 818 77C790.7 83 763.3 83 736.2 77C709 71 682 59 654.8 54C627.7 49 600.3 51 573 47C545.7 43 518.3 33 491 36C463.7 39 436.3 55 409 56C381.7 57 354.3 43 327 34C299.7 25 272.3 21 245.2 23C218 25 191 33 163.8 42C136.7 51 109.3 61 82 69C54.7 77 27.3 83 13.7 86L0 89Z" fill="#e1e1e1"></path><path d="M0 127L13.7 130C27.3 133 54.7 139 82 137C109.3 135 136.7 125 163.8 115C191 105 218 95 245.2 89C272.3 83 299.7 81 327 85C354.3 89 381.7 99 409 103C436.3 107 463.7 105 491 108C518.3 111 545.7 119 573 119C600.3 119 627.7 111 654.8 116C682 121 709 139 736.2 147C763.3 155 790.7 153 818 140C845.3 127 872.7 103 886.3 91L900 79L900 65L886.3 74C872.7 83 845.3 101 818 111C790.7 121 763.3 123 736.2 116C709 109 682 93 654.8 88C627.7 83 600.3 89 573 87C545.7 85 518.3 75 491 74C463.7 73 436.3 81 409 77C381.7 73 354.3 57 327 49C299.7 41 272.3 41 245.2 48C218 55 191 69 163.8 81C136.7 93 109.3 103 82 106C54.7 109 27.3 105 13.7 103L0 101Z" fill="#dbdbdb"></path><path d="M0 163L13.7 169C27.3 175 54.7 187 82 197C109.3 207 136.7 215 163.8 214C191 213 218 203 245.2 189C272.3 175 299.7 157 327 151C354.3 145 381.7 151 409 162C436.3 173 463.7 189 491 196C518.3 203 545.7 201 573 193C600.3 185 627.7 171 654.8 180C682 189 709 221 736.2 233C763.3 245 790.7 237 818 225C845.3 213 872.7 197 886.3 189L900 181L900 77L886.3 89C872.7 101 845.3 125 818 138C790.7 151 763.3 153 736.2 145C709 137 682 119 654.8 114C627.7 109 600.3 117 573 117C545.7 117 518.3 109 491 106C463.7 103 436.3 105 409 101C381.7 97 354.3 87 327 83C299.7 79 272.3 81 245.2 87C218 93 191 103 163.8 113C136.7 123 109.3 133 82 135C54.7 137 27.3 131 13.7 128L0 125Z" fill="#d4d4d4"></path><path d="M0 241L13.7 249C27.3 257 54.7 273 82 295C109.3 317 136.7 345 163.8 339C191 333 218 293 245.2 277C272.3 261 299.7 269 327 279C354.3 289 381.7 301 409 314C436.3 327 463.7 341 491 332C518.3 323 545.7 291 573 274C600.3 257 627.7 255 654.8 273C682 291 709 329 736.2 339C763.3 349 790.7 331 818 322C845.3 313 872.7 313 886.3 313L900 313L900 179L886.3 187C872.7 195 845.3 211 818 223C790.7 235 763.3 243 736.2 231C709 219 682 187 654.8 178C627.7 169 600.3 183 573 191C545.7 199 518.3 201 491 194C463.7 187 436.3 171 409 160C381.7 149 354.3 143 327 149C299.7 155 272.3 173 245.2 187C218 201 191 211 163.8 212C136.7 213 109.3 205 82 195C54.7 185 27.3 173 13.7 167L0 161Z" fill="#d1d1d1"></path><path d="M0 391L13.7 389C27.3 387 54.7 383 82 386C109.3 389 136.7 399 163.8 406C191 413 218 417 245.2 420C272.3 423 299.7 425 327 417C354.3 409 381.7 391 409 385C436.3 379 463.7 385 491 387C518.3 389 545.7 387 573 386C600.3 385 627.7 385 654.8 393C682 401 709 417 736.2 424C763.3 431 790.7 429 818 423C845.3 417 872.7 407 886.3 402L900 397L900 311L886.3 311C872.7 311 845.3 311 818 320C790.7 329 763.3 347 736.2 337C709 327 682 289 654.8 271C627.7 253 600.3 255 573 272C545.7 289 518.3 321 491 330C463.7 339 436.3 325 409 312C381.7 299 354.3 287 327 277C299.7 267 272.3 259 245.2 275C218 291 191 331 163.8 337C136.7 343 109.3 315 82 293C54.7 271 27.3 255 13.7 247L0 239Z" fill="#d1d1d1"></path><path d="M0 463L13.7 459C27.3 455 54.7 447 82 445C109.3 443 136.7 447 163.8 447C191 447 218 443 245.2 444C272.3 445 299.7 451 327 448C354.3 445 381.7 433 409 429C436.3 425 463.7 429 491 436C518.3 443 545.7 453 573 455C600.3 457 627.7 451 654.8 451C682 451 709 457 736.2 464C763.3 471 790.7 479 818 485C845.3 491 872.7 495 886.3 497L900 499L900 395L886.3 400C872.7 405 845.3 415 818 421C790.7 427 763.3 429 736.2 422C709 415 682 399 654.8 391C627.7 383 600.3 383 573 384C545.7 385 518.3 387 491 385C463.7 383 436.3 377 409 383C381.7 389 354.3 407 327 415C299.7 423 272.3 421 245.2 418C218 415 191 411 163.8 404C136.7 397 109.3 387 82 384C54.7 381 27.3 385 13.7 387L0 389Z" fill="#d4d4d4"></path><path d="M0 505L13.7 504C27.3 503 54.7 501 82 500C109.3 499 136.7 499 163.8 501C191 503 218 507 245.2 511C272.3 515 299.7 519 327 515C354.3 511 381.7 499 409 494C436.3 489 463.7 491 491 493C518.3 495 545.7 497 573 502C600.3 507 627.7 515 654.8 513C682 511 709 499 736.2 503C763.3 507 790.7 527 818 536C845.3 545 872.7 543 886.3 542L900 541L900 497L886.3 495C872.7 493 845.3 489 818 483C790.7 477 763.3 469 736.2 462C709 455 682 449 654.8 449C627.7 449 600.3 455 573 453C545.7 451 518.3 441 491 434C463.7 427 436.3 423 409 427C381.7 431 354.3 443 327 446C299.7 449 272.3 443 245.2 442C218 441 191 445 163.8 445C136.7 445 109.3 441 82 443C54.7 445 27.3 453 13.7 457L0 461Z" fill="#dbdbdb"></path><path d="M0 547L13.7 544C27.3 541 54.7 535 82 533C109.3 531 136.7 533 163.8 538C191 543 218 551 245.2 553C272.3 555 299.7 551 327 547C354.3 543 381.7 539 409 539C436.3 539 463.7 543 491 546C518.3 549 545.7 551 573 553C600.3 555 627.7 557 654.8 554C682 551 709 543 736.2 547C763.3 551 790.7 567 818 572C845.3 577 872.7 571 886.3 568L900 565L900 539L886.3 540C872.7 541 845.3 543 818 534C790.7 525 763.3 505 736.2 501C709 497 682 509 654.8 511C627.7 513 600.3 505 573 500C545.7 495 518.3 493 491 491C463.7 489 436.3 487 409 492C381.7 497 354.3 509 327 513C299.7 517 272.3 513 245.2 509C218 505 191 501 163.8 499C136.7 497 109.3 497 82 498C54.7 499 27.3 501 13.7 502L0 503Z" fill="#e1e1e1"></path><path d="M0 571L13.7 570C27.3 569 54.7 567 82 569C109.3 571 136.7 577 163.8 578C191 579 218 575 245.2 574C272.3 573 299.7 575 327 576C354.3 577 381.7 577 409 577C436.3 577 463.7 577 491 576C518.3 575 545.7 573 573 575C600.3 577 627.7 583 654.8 584C682 585 709 581 736.2 582C763.3 583 790.7 589 818 589C845.3 589 872.7 583 886.3 580L900 577L900 563L886.3 566C872.7 569 845.3 575 818 570C790.7 565 763.3 549 736.2 545C709 541 682 549 654.8 552C627.7 555 600.3 553 573 551C545.7 549 518.3 547 491 544C463.7 541 436.3 537 409 537C381.7 537 354.3 541 327 545C299.7 549 272.3 553 245.2 551C218 549 191 541 163.8 536C136.7 531 109.3 529 82 531C54.7 533 27.3 539 13.7 542L0 545Z" fill="#e5e5e5"></path><path d="M0 601L13.7 601C27.3 601 54.7 601 82 601C109.3 601 136.7 601 163.8 601C191 601 218 601 245.2 601C272.3 601 299.7 601 327 601C354.3 601 381.7 601 409 601C436.3 601 463.7 601 491 601C518.3 601 545.7 601 573 601C600.3 601 627.7 601 654.8 601C682 601 709 601 736.2 601C763.3 601 790.7 601 818 601C845.3 601 872.7 601 886.3 601L900 601L900 575L886.3 578C872.7 581 845.3 587 818 587C790.7 587 763.3 581 736.2 580C709 579 682 583 654.8 582C627.7 581 600.3 575 573 573C545.7 571 518.3 573 491 574C463.7 575 436.3 575 409 575C381.7 575 354.3 575 327 574C299.7 573 272.3 571 245.2 572C218 573 191 577 163.8 576C136.7 575 109.3 569 82 567C54.7 565 27.3 567 13.7 568L0 569Z" fill="#eaeaea"></path></svg>