<?xml version="1.0" encoding="UTF-8"?>
<svg id="objects" xmlns="http://www.w3.org/2000/svg" xmlns:xlink="http://www.w3.org/1999/xlink" viewBox="0 0 520 301">
  <defs>
    <style>
      .cls-1 {
        fill: url(#linear-gradient);
      }

      .cls-1, .cls-2, .cls-3, .cls-4, .cls-5, .cls-6, .cls-7, .cls-8 {
        stroke-width: 0px;
      }

      .cls-2 {
        fill: #000;
      }

      .cls-3 {
        fill: url(#linear-gradient-5);
      }

      .cls-9 {
        fill: none;
        stroke: #000;
        stroke-miterlimit: 10;
        stroke-width: .5px;
      }

      .cls-4 {
        fill: url(#linear-gradient-2);
      }

      .cls-5 {
        fill: url(#linear-gradient-3);
      }

      .cls-6 {
        fill: #232323;
      }

      .cls-7 {
        fill: #fff;
      }

      .cls-8 {
        fill: url(#linear-gradient-4);
      }
    </style>
    <linearGradient id="linear-gradient" x1="260" y1="294.01" x2="260" y2="301.18" gradientUnits="userSpaceOnUse">
      <stop offset=".36" stop-color="#808185"/>
      <stop offset=".5" stop-color="#78797d"/>
      <stop offset=".54" stop-color="#7a7b7f"/>
      <stop offset="1" stop-color="#0d0c11"/>
    </linearGradient>
    <linearGradient id="linear-gradient-2" x1="260" y1="0" x2="260" y2="290.2" gradientUnits="userSpaceOnUse">
      <stop offset="0" stop-color="#363636"/>
      <stop offset="0" stop-color="#3a3a3a"/>
      <stop offset=".1" stop-color="#404040"/>
      <stop offset=".12" stop-color="#7d7d7d"/>
      <stop offset=".15" stop-color="#404040"/>
      <stop offset=".24" stop-color="#383838"/>
      <stop offset=".41" stop-color="#404040"/>
      <stop offset=".43" stop-color="#797979"/>
      <stop offset=".46" stop-color="#404040"/>
      <stop offset=".57" stop-color="#404040"/>
      <stop offset=".6" stop-color="#626262"/>
      <stop offset=".63" stop-color="#404040"/>
      <stop offset=".69" stop-color="#404040"/>
      <stop offset=".79" stop-color="#3d3d3d"/>
      <stop offset=".9" stop-color="#404040"/>
      <stop offset=".93" stop-color="#7e7e7e"/>
      <stop offset=".96" stop-color="#474747"/>
    </linearGradient>
    <linearGradient id="linear-gradient-3" x1="0" y1="289" x2="520" y2="289" gradientUnits="userSpaceOnUse">
      <stop offset="0" stop-color="#49484d"/>
      <stop offset=".01" stop-color="#d3d4d9"/>
      <stop offset=".03" stop-color="#d0d1d6"/>
      <stop offset=".08" stop-color="#8c8d92"/>
      <stop offset=".09" stop-color="#85868b"/>
      <stop offset=".51" stop-color="#cbccd2"/>
      <stop offset=".93" stop-color="#85868b"/>
      <stop offset=".94" stop-color="#8b8c91"/>
      <stop offset=".98" stop-color="#d0d1d6"/>
      <stop offset=".99" stop-color="#d3d4d9"/>
      <stop offset="1" stop-color="#454449"/>
    </linearGradient>
    <linearGradient id="linear-gradient-4" x1="218" y1="287.5" x2="302" y2="287.5" gradientUnits="userSpaceOnUse">
      <stop offset="0" stop-color="#161617"/>
      <stop offset=".06" stop-color="#84848a"/>
      <stop offset=".3" stop-color="#8f8f96"/>
      <stop offset=".52" stop-color="#adadb5"/>
      <stop offset=".72" stop-color="#8a8b91"/>
      <stop offset=".95" stop-color="#7b7c81"/>
      <stop offset="1" stop-color="#0d0c11"/>
    </linearGradient>
    <linearGradient id="linear-gradient-5" x1="43.59" y1="8.09" x2="134.66" y2="99.16" gradientUnits="userSpaceOnUse">
      <stop offset="0" stop-color="#9e9e9e"/>
      <stop offset="1" stop-color="#1d1d1b"/>
    </linearGradient>
  </defs>
  <path class="cls-1" d="M520,294s-16,7-40,7-416,0-440,0-40-7-40-7l260-2,260,2Z"/>
  <path class="cls-4" d="M59,0h402c5.52,0,10,4.48,10,10v274H49V10c0-5.52,4.48-10,10-10Z"/>
  <path class="cls-2" d="M50.5,284V10c0-4.69,3.81-8.5,8.5-8.5h402c4.69,0,8.5,3.81,8.5,8.5v274H50.5Z"/>
  <rect class="cls-5" y="284" width="520" height="10"/>
  <path class="cls-8" d="M218,284h84c0,3.86-3.14,7-7,7h-70c-3.86,0-7-3.14-7-7h0Z"/>
  <line class="cls-9" x1="469.5" y1="275" x2="50.5" y2="275"/>
  <path class="cls-3" d="M234,3L52,212V10c0-3.86,3.14-7,7-7h175Z"/>
  <rect class="cls-7" x="61" y="20" width="398" height="248"/>
  <circle class="cls-6" cx="260" cy="11" r="3"/>
</svg>